<svg xmlns="http://www.w3.org/2000/svg" viewBox="0 0 320 320" role="img" aria-label="Koi">
  <rect width="320" height="320" rx="28" fill="#f8f9fb"/>
  <g fill="#6264cf">
    <path d="M70 92h37v68l68-68h48l-72 72 79 64h-55l-68-57v57H70z"/>
    <path d="M181 160c0-43 31-74 76-74 45 0 76 31 76 74s-31 74-76 74c-45 0-76-31-76-74zm112 0c0-22-14-38-36-38s-36 16-36 38 14 38 36 38 36-16 36-38z" transform="translate(-20 0)"/>
    <path d="M246 129h38v99h-38z"/>
    <circle cx="265" cy="92" r="20"/>
  </g>
  <path d="M92 219c44 31 105 41 175 28v24c-71 21-143 7-191-33z" fill="#6264cf"/>
</svg>
